<svg width="400" height="400" viewBox="0 0 400 400" fill="none" xmlns="http://www.w3.org/2000/svg">
<rect width="400" height="400" rx="200" fill="#282828"/>
<path d="M164.5 191.2L161.7 204.3H173.7V219.7H158.4L155.1 235H139.1L142.4 219.7H125.8L122.5 235H106.5L109.8 219.7H95V204.3H113.1L115.9 191.2H101.4V175.8H119.1L122.3 161H138.3L135.1 175.8H151.7L154.9 161H170.9L167.7 175.8H180.1V191.2H164.5ZM148.5 191.2H131.9L129.1 204.3H145.7L148.5 191.2ZM188.53 182.6C188.796 175.467 191.13 169.967 195.53 166.1C199.93 162.233 205.896 160.3 213.43 160.3C218.43 160.3 222.696 161.167 226.23 162.9C229.83 164.633 232.53 167 234.33 170C236.196 173 237.13 176.367 237.13 180.1C237.13 184.5 236.03 188.1 233.83 190.9C231.63 193.633 229.063 195.5 226.13 196.5V196.9C229.93 198.167 232.93 200.267 235.13 203.2C237.33 206.133 238.43 209.9 238.43 214.5C238.43 218.633 237.463 222.3 235.53 225.5C233.663 228.633 230.896 231.1 227.23 232.9C223.63 234.7 219.33 235.6 214.33 235.6C206.33 235.6 199.93 233.633 195.13 229.7C190.396 225.767 187.896 219.833 187.63 211.9H204.23C204.296 214.833 205.13 217.167 206.73 218.9C208.33 220.567 210.663 221.4 213.73 221.4C216.33 221.4 218.33 220.667 219.73 219.2C221.196 217.667 221.93 215.667 221.93 213.2C221.93 210 220.896 207.7 218.83 206.3C216.83 204.833 213.596 204.1 209.13 204.1H205.93V190.2H209.13C212.53 190.2 215.263 189.633 217.33 188.5C219.463 187.3 220.53 185.2 220.53 182.2C220.53 179.8 219.863 177.933 218.53 176.6C217.196 175.267 215.363 174.6 213.03 174.6C210.496 174.6 208.596 175.367 207.33 176.9C206.13 178.433 205.43 180.333 205.23 182.6H188.53Z" fill="white"/>
<path d="M275.577 235.7C270.443 235.7 265.843 234.867 261.777 233.2C257.71 231.533 254.443 229.067 251.977 225.8C249.577 222.533 248.31 218.6 248.177 214H266.377C266.643 216.6 267.543 218.6 269.077 220C270.61 221.333 272.61 222 275.077 222C277.61 222 279.61 221.433 281.077 220.3C282.543 219.1 283.277 217.467 283.277 215.4C283.277 213.667 282.677 212.233 281.477 211.1C280.343 209.967 278.91 209.033 277.177 208.3C275.51 207.567 273.11 206.733 269.977 205.8C265.443 204.4 261.743 203 258.877 201.6C256.01 200.2 253.543 198.133 251.477 195.4C249.41 192.667 248.377 189.1 248.377 184.7C248.377 178.167 250.743 173.067 255.477 169.4C260.21 165.667 266.377 163.8 273.977 163.8C281.71 163.8 287.943 165.667 292.677 169.4C297.41 173.067 299.943 178.2 300.277 184.8H281.777C281.643 182.533 280.81 180.767 279.277 179.5C277.743 178.167 275.777 177.5 273.377 177.5C271.31 177.5 269.643 178.067 268.377 179.2C267.11 180.267 266.477 181.833 266.477 183.9C266.477 186.167 267.543 187.933 269.677 189.2C271.81 190.467 275.143 191.833 279.677 193.3C284.21 194.833 287.877 196.3 290.677 197.7C293.543 199.1 296.01 201.133 298.077 203.8C300.143 206.467 301.177 209.9 301.177 214.1C301.177 218.1 300.143 221.733 298.077 225C296.077 228.267 293.143 230.867 289.277 232.8C285.41 234.733 280.843 235.7 275.577 235.7Z" fill="#FE8300"/>
</svg>
